<svg xmlns="http://www.w3.org/2000/svg" viewBox="0 0 457.36 45.77"><defs><style>.cls-1{fill:#00c9ff;}</style></defs><g id="Layer_2" data-name="Layer 2"><g id="Lager_1" data-name="Lager 1"><path class="cls-1" d="M66.45,0H82.79l21.54,34.45L125.81,0h16.12V45.77H131.57L132,8.1,108.31,45.77H100L76.47,8.1l.28,37.67H66.45Z"/><path class="cls-1" d="M170.9,36.71l-5.08,9.06H154L180.16,0H194.5l25.81,45.77H208.78l-5.22-9.06Zm16.33-29.3L175,29.3h24.7Z"/><path class="cls-1" d="M230.26,0H269c8,0,11.67,1,14.14,3.64,2,2.19,2.95,5.76,2.95,11,0,4.46-.83,7.48-2.54,9.4-1.44,1.71-3.71,2.47-9.27,3.15,4.4.28,5.43.48,6.8,1.1,2.95,1.44,4.25,4,4.25,8.44v9.06H274.73V38.91c0-6.11-1.51-7.41-8.51-7.41H240.76V45.77h-10.5Zm35.61,23.06c7.69,0,9.61-1.38,9.61-6.87,0-6.31-1.58-7.61-9.4-7.61H240.76V23.06Z"/><path class="cls-1" d="M301.36,0h10.56V45.77H301.36Z"/><path class="cls-1" d="M328.33,0h16.4L379.1,38.08,378.9,0H389V45.77H372.52L338.34,7.89l.21,37.88H328.33Z"/><polygon class="cls-1" points="452.63 45.77 405.32 45.77 405.32 36.41 457.36 36.41 452.63 45.77"/><polygon class="cls-1" points="448.14 18.21 405.32 18.21 405.32 27.56 443.4 27.56 448.14 18.21"/><polygon class="cls-1" points="457.36 0 405.32 0 405.32 9.35 452.63 9.35 457.36 0"/><polygon class="cls-1" points="47.3 45.77 0 45.77 0 36.41 52.04 36.41 47.3 45.77"/><polygon class="cls-1" points="42.82 18.21 0 18.21 0 27.56 38.08 27.56 42.82 18.21"/><polygon class="cls-1" points="52.04 0 0 0 0 9.35 47.3 9.35 52.04 0"/></g></g></svg>